# xmcd CD database file
#
# Track frame offsets:
#	150
#	20622
#	45765
#
# Disc length: 882 seconds
#
# Revision: 0
# Processed by: cddbd v1.5PL3 Copyright (c) Steve Scherf et al.
# Submitted via: CDex 1.51
#
DISCID=16037003
DTITLE=永井真理子 - YOU AND I (SCD)
DYEAR=1992
DGENRE=JPop
TTITLE0=YOU AND I
TTITLE1=いつも いつでも
TTITLE2=YOU AND I(original karaoke)
EXTD=YEAR: 1992
EXTT0=
EXTT1=
EXTT2=
PLAYORDER=
